<svg xmlns="http://www.w3.org/2000/svg" viewBox="0 0 32 32" width="32" height="32">
  <rect width="32" height="32" rx="7" fill="#126b57"/>
  <g fill="none" stroke="#e3efe9" stroke-width="2" stroke-linecap="round">
    <path d="M19.5 23.5 23.5 23.5 23.5 19.5"/>
  </g>
  <path d="M14.5 6.5h-5a3 3 0 0 0-3 3v5a3 3 0 0 0 .88 2.12l7.5 7.5a3 3 0 0 0 4.24 0l5-5a3 3 0 0 0 0-4.24l-7.5-7.5A3 3 0 0 0 14.5 6.5Z" fill="#e3efe9"/>
  <circle cx="11.5" cy="11.5" r="2" fill="#126b57"/>
  <g fill="none" stroke="#c8861d" stroke-width="2" stroke-linecap="round">
    <path d="M24 8a5 5 0 0 1 0 7"/>
    <path d="M26.5 5.5a8.5 8.5 0 0 1 0 12"/>
  </g>
</svg>
